<svg width="29" height="30" viewBox="0 0 29 30" fill="none" xmlns="http://www.w3.org/2000/svg">
    <g filter="url(#filter0_d_244_327)">
    <path opacity="0.4" d="M13.5 21C18.7467 21 23 16.7467 23 11.5C23 6.25329 18.7467 2 13.5 2C8.25329 2 4 6.25329 4 11.5C4 16.7467 8.25329 21 13.5 21Z" fill="white"/>
    <path d="M23.3001 22C23.1201 22 22.9401 21.93 22.8101 21.8L20.9501 19.94C20.6801 19.67 20.6801 19.23 20.9501 18.95C21.2201 18.68 21.6601 18.68 21.9401 18.95L23.8001 20.81C24.0701 21.08 24.0701 21.52 23.8001 21.8C23.6601 21.93 23.4801 22 23.3001 22Z" fill="white"/>
    </g>
    <defs>
    <filter id="filter0_d_244_327" x="0" y="2" width="28.0024" height="28" filterUnits="userSpaceOnUse" color-interpolation-filters="sRGB">
    <feFlood flood-opacity="0" result="BackgroundImageFix"/>
    <feColorMatrix in="SourceAlpha" type="matrix" values="0 0 0 0 0 0 0 0 0 0 0 0 0 0 0 0 0 0 127 0" result="hardAlpha"/>
    <feOffset dy="4"/>
    <feGaussianBlur stdDeviation="2"/>
    <feComposite in2="hardAlpha" operator="out"/>
    <feColorMatrix type="matrix" values="0 0 0 0 0 0 0 0 0 0 0 0 0 0 0 0 0 0 0.25 0"/>
    <feBlend mode="normal" in2="BackgroundImageFix" result="effect1_dropShadow_244_327"/>
    <feBlend mode="normal" in="SourceGraphic" in2="effect1_dropShadow_244_327" result="shape"/>
    </filter>
    </defs>
    </svg>
    