<svg width="39" height="40" viewBox="0 0 39 40" fill="none" xmlns="http://www.w3.org/2000/svg">
<g filter="url(#filter0_d_296_1229)">
<path opacity="0.4" d="M33.7042 17.1208C32.8147 14.2042 30.598 12.1042 27.8126 11.4771C26.9959 7.83125 24.7501 5.22083 21.5709 4.22916C18.1001 3.16458 14.0751 4.2 11.5522 6.83958C9.32092 9.15833 8.59175 12.3521 9.45217 15.75C6.34591 16.5083 4.91675 19.2208 4.91675 21.6708C4.91675 24.4125 6.7105 27.4896 10.7063 27.7667H14.3959V23.9312C14.3959 22.0792 15.5042 20.9708 17.3563 20.9708H21.6438C23.4959 20.9708 24.6042 22.0792 24.6042 23.9312V27.7667H25.7855C25.8001 27.7667 25.8292 27.7667 25.8438 27.7667C27.9147 27.7667 29.898 26.9937 31.4147 25.6083C33.7917 23.5375 34.6667 20.2854 33.7042 17.1208Z" fill="white"/>
<path d="M21.6437 20.9854H17.3562C15.5041 20.9854 14.3958 22.0937 14.3958 23.9458V28.2333C14.3958 30.0854 15.5041 31.1937 17.3562 31.1937H21.6437C23.4958 31.1937 24.6041 30.0854 24.6041 28.2333V23.9458C24.6041 22.0937 23.4958 20.9854 21.6437 20.9854ZM21.9353 26.3229L19.4999 29.0937L19.2083 29.4292C18.8145 29.8812 18.4791 29.7646 18.4791 29.1521V26.5562H17.3708C16.8603 26.5562 16.7291 26.25 17.0645 25.8708L19.4999 23.1L19.7916 22.7646C20.1853 22.3125 20.5208 22.4292 20.5208 23.0417V25.6375H21.6291C22.1395 25.6229 22.2708 25.9437 21.9353 26.3229Z" fill="#F7C84C"/>
</g>
<defs>
<filter id="filter0_d_296_1229" x="0.916748" y="3.81594" width="37.1719" height="35.3778" filterUnits="userSpaceOnUse" color-interpolation-filters="sRGB">
<feFlood flood-opacity="0" result="BackgroundImageFix"/>
<feColorMatrix in="SourceAlpha" type="matrix" values="0 0 0 0 0 0 0 0 0 0 0 0 0 0 0 0 0 0 127 0" result="hardAlpha"/>
<feOffset dy="4"/>
<feGaussianBlur stdDeviation="2"/>
<feComposite in2="hardAlpha" operator="out"/>
<feColorMatrix type="matrix" values="0 0 0 0 0 0 0 0 0 0 0 0 0 0 0 0 0 0 0.25 0"/>
<feBlend mode="normal" in2="BackgroundImageFix" result="effect1_dropShadow_296_1229"/>
<feBlend mode="normal" in="SourceGraphic" in2="effect1_dropShadow_296_1229" result="shape"/>
</filter>
</defs>
</svg>
