<svg
    width="28"
    height="28"
    viewBox="0 0 28 28"
    fill="none"
    xmlns="http://www.w3.org/2000/Svg.Svg"
>
    <path
        opacity="0.4"
        d="M9.11171 2.33333H18.8767C23.135 2.33333 25.6667 4.86499 25.6667 9.11166V18.8767C25.6667 23.1233 23.135 25.655 18.8884 25.655H9.11171C4.86504 25.6667 2.33337 23.135 2.33337 18.8883V9.11166C2.33337 4.86499 4.86504 2.33333 9.11171 2.33333Z"
        fill="white"
    />
    <path
        d="M20.6383 15.7267C20.545 15.5167 20.3816 15.3417 20.16 15.2483C20.055 15.2017 19.9383 15.1783 19.8216 15.1783H8.16663C7.68829 15.1783 7.29163 15.575 7.29163 16.0533C7.29163 16.5317 7.68829 16.9283 8.16663 16.9283H17.7216L15.7733 18.8767C15.435 19.215 15.435 19.775 15.7733 20.1133C15.9483 20.2883 16.17 20.37 16.3916 20.37C16.6133 20.37 16.835 20.2883 17.01 20.1133L20.4516 16.6717C20.5333 16.59 20.5916 16.4967 20.6383 16.3917C20.7316 16.17 20.7316 15.9367 20.6383 15.7267Z"
        fill="white"
    />
    <path
        d="M7.36163 12.2733C7.45496 12.4833 7.61829 12.6583 7.83996 12.7517C7.94496 12.7983 8.04996 12.8217 8.16663 12.8217H19.8333C20.3116 12.8217 20.7083 12.425 20.7083 11.9467C20.7083 11.4683 20.3116 11.0717 19.8333 11.0717H10.2783L12.2266 9.12334C12.565 8.785 12.565 8.225 12.2266 7.88667C11.8883 7.54834 11.3283 7.54834 10.99 7.88667L7.54829 11.3283C7.46663 11.41 7.40829 11.5033 7.36163 11.6083C7.26829 11.83 7.26829 12.0633 7.36163 12.2733Z"
        fill="white"
    />
</svg>