<svg width="130" height="130" viewBox="0 0 130 130" fill="none" xmlns="http://www.w3.org/2000/svg">
<path opacity="0.4" d="M117.758 63.5917C114.454 52.7583 106.221 44.9583 95.875 42.6292C92.8417 29.0875 84.5 19.3917 72.6917 15.7083C59.8 11.7542 44.85 15.6 35.4792 25.4042C27.1917 34.0167 24.4834 45.8792 27.6792 58.5C16.1417 61.3167 10.8334 71.3917 10.8334 80.4917C10.8334 90.675 17.4959 102.104 32.3375 103.133H46.0417V88.8875C46.0417 82.0083 50.1584 77.8917 57.0375 77.8917H72.9625C79.8417 77.8917 83.9584 82.0083 83.9584 88.8875V103.133H88.3459C88.4 103.133 88.5084 103.133 88.5625 103.133C96.2542 103.133 103.621 100.262 109.254 95.1167C118.083 87.425 121.333 75.3458 117.758 63.5917Z" fill="white"/>
<path d="M72.9626 77.9458H57.0376C50.1584 77.9458 46.0417 82.0625 46.0417 88.9417V104.867C46.0417 111.746 50.1584 115.862 57.0376 115.862H72.9626C79.8418 115.862 83.9584 111.746 83.9584 104.867V88.9417C83.9584 82.0625 79.8418 77.9458 72.9626 77.9458ZM74.0459 97.7708L65.0001 108.063L63.9167 109.308C62.4543 110.988 61.2084 110.554 61.2084 108.279V98.6375H57.0917C55.1959 98.6375 54.7084 97.5 55.9542 96.0917L65.0001 85.8L66.0834 84.5542C67.5459 82.875 68.7917 83.3083 68.7917 85.5833V95.225H72.9084C74.8043 95.1708 75.2917 96.3625 74.0459 97.7708Z" fill="#F7C84C"/>
</svg>
